<svg width="31" height="43" viewBox="0 0 31 43" fill="none" xmlns="http://www.w3.org/2000/svg">
<path d="M0 0V43H18.9444V32.68H24.1111V43H31V0H0ZM12.0556 30.96H6.88889V25.8H12.0556V30.96ZM12.0556 24.08H6.88889V18.92H12.0556V24.08ZM12.0556 17.2H6.88889V12.04H12.0556V17.2ZM12.0556 10.32H6.88889V5.16H12.0556V10.32ZM24.1111 30.96H18.9444V25.8H24.1111V30.96ZM24.1111 24.08H18.9444V18.92H24.1111V24.08ZM24.1111 17.2H18.9444V12.04H24.1111V17.2ZM24.1111 10.32H18.9444V5.16H24.1111V10.32Z" fill="#2E2E2E"/>
</svg>
