<svg width="19" height="19" viewBox="0 0 19 19" fill="none" xmlns="http://www.w3.org/2000/svg">
<path d="M9.5 0C12.0858 0 12.4043 0.0187377 13.4162 0.056213C14.4093 0.0936884 15.1026 0.262327 15.7209 0.505917C16.358 0.749507 16.8826 1.06805 17.4073 1.5927C17.932 2.11736 18.2505 2.64201 18.4941 3.27909C18.7377 3.89744 18.9063 4.59073 18.9438 5.58383C18.9813 6.59566 19 6.9142 19 9.5C19 12.0858 18.9813 12.4043 18.9438 13.4162C18.9063 14.4093 18.7377 15.1026 18.4941 15.7209C18.2505 16.358 17.932 16.8826 17.4073 17.4073C16.8826 17.932 16.358 18.2505 15.7209 18.4941C15.1026 18.7377 14.4093 18.9063 13.4162 18.9438C12.4043 18.9813 12.0858 19 9.5 19C6.9142 19 6.59566 18.9813 5.58383 18.9438C4.59073 18.9063 3.89744 18.7377 3.27909 18.4941C2.64201 18.2505 2.11736 17.932 1.5927 17.4073C1.06805 16.8826 0.749507 16.358 0.505917 15.7209C0.262327 15.1026 0.0936884 14.4093 0.056213 13.4162C0.0187377 12.4043 0 12.0858 0 9.5C0 6.9142 0.0187377 6.59566 0.056213 5.58383C0.0936884 4.59073 0.262327 3.89744 0.505917 3.27909C0.749507 2.64201 1.06805 2.11736 1.5927 1.5927C2.11736 1.06805 2.64201 0.749507 3.27909 0.505917C3.89744 0.262327 4.59073 0.0936884 5.58383 0.056213C6.59566 0.0187377 6.9142 0 9.5 0ZM9.5 1.23669C6.80177 1.23669 6.48323 1.25542 5.43392 1.2929C4.45957 1.33037 3.91617 1.51775 3.56016 1.64892C2.64201 2.02367 2.02367 2.64201 1.64892 3.56016C1.51775 3.91617 1.33037 4.45957 1.2929 5.43392C1.25542 6.48323 1.23669 6.80177 1.23669 9.5C1.23669 12.1982 1.25542 12.5168 1.2929 13.5661C1.33037 14.5404 1.51775 15.0838 1.64892 15.4398C2.02367 16.358 2.64201 16.9763 3.56016 17.3511C3.91617 17.4822 4.45957 17.6696 5.43392 17.7071C6.48323 17.7446 6.80177 17.7633 9.5 17.7633C12.1982 17.7633 12.5168 17.7446 13.5661 17.7071C14.5404 17.6696 15.0838 17.4822 15.4398 17.3511C16.358 16.9763 16.9763 16.358 17.3511 15.4398C17.4822 15.0838 17.6696 14.5404 17.7071 13.5661C17.7446 12.5168 17.7633 12.1982 17.7633 9.5C17.7633 6.80177 17.7446 6.48323 17.7071 5.43392C17.6696 4.45957 17.4822 3.91617 17.3511 3.56016C16.9763 2.64201 16.358 2.02367 15.4398 1.64892C15.0838 1.51775 14.5404 1.33037 13.5661 1.2929C12.5168 1.25542 12.1982 1.23669 9.5 1.23669ZM9.5 13.3037C11.5986 13.3037 13.3037 11.5986 13.3037 9.5C13.3037 7.40138 11.5986 5.69625 9.5 5.69625C7.40138 5.69625 5.69625 7.40138 5.69625 9.5C5.69625 11.5986 7.40138 13.3037 9.5 13.3037ZM9.5 4.6282C12.1982 4.6282 14.3718 6.80177 14.3718 9.5C14.3718 12.1982 12.1982 14.3718 9.5 14.3718C6.80177 14.3718 4.6282 12.1982 4.6282 9.5C4.6282 6.80177 6.80177 4.6282 9.5 4.6282ZM15.7209 4.44083C15.7209 5.07791 15.1963 5.56509 14.5592 5.56509C13.9221 5.56509 13.4349 5.07791 13.4349 4.44083C13.4349 3.80375 13.9221 3.27909 14.5592 3.27909C15.1963 3.27909 15.7209 3.80375 15.7209 4.44083Z" fill="#8F8F8F"/>
</svg>
