<svg width="11" height="23" viewBox="0 0 11 23" fill="none" xmlns="http://www.w3.org/2000/svg">
<path d="M6.99323 1.4854C7.07476 1.4854 7.12166 1.48912 7.12166 1.48912H8.91081L8.90158 3.71718H7.12442C6.14644 3.71718 6.16905 4.6225 6.16905 4.6225V8.15473H9.62951L9.14651 10.3798H6.15774V21.515H4.10449L4.10312 10.3798H1.37538L1.3699 8.15473H4.10415V4.69231C4.10445 1.67328 6.4174 1.48538 6.99323 1.48538V1.4854ZM8.91081 1.48909H8.91424H8.91081ZM6.99323 0C6.50064 0 5.53802 0.0884032 4.62615 0.68404C3.76292 1.247 2.73424 2.4 2.73424 4.69196V6.66898H1.3702C1.00606 6.66898 0.657003 6.82643 0.399404 7.1057C0.272128 7.24423 0.171332 7.40863 0.102795 7.58948C0.0342578 7.77033 -0.000671634 7.96407 9.78094e-06 8.15958L0.00549054 10.3847C0.00823096 11.2028 0.621056 11.8649 1.3757 11.8649H2.73323L2.7346 21.5146C2.7346 22.3349 3.34813 23 4.10481 23H6.15809C6.91476 23 7.52829 22.3349 7.52829 21.5146V11.8649H9.14685C9.75488 11.8649 10.2903 11.4304 10.4615 10.798L10.9445 8.57289C11.0661 8.12395 10.9853 7.63861 10.7263 7.26464C10.5989 7.07972 10.4334 6.92958 10.2431 6.82618C10.0527 6.72277 9.84273 6.66896 9.62981 6.669H7.53956V5.20331L8.90188 5.20256C9.65584 5.20256 10.2687 4.54194 10.2721 3.72387L10.2813 1.57118C10.2827 1.54385 10.2834 1.51649 10.2834 1.48912C10.2834 0.668815 9.67126 0.00373664 8.91458 0.00373664H7.16037C7.12098 0.00150857 7.06411 2.3209e-05 6.99323 0Z" fill="#8F8F8F"/>
</svg>
