<svg width="19" height="35" viewBox="0 0 19 35" fill="none" xmlns="http://www.w3.org/2000/svg">
<path d="M12.178 2.26039C12.3125 2.26039 12.3899 2.26605 12.3899 2.26605H15.3414L15.3261 5.65658H12.3945C10.7811 5.65658 10.8184 7.03424 10.8184 7.03424V12.4094H16.527L15.7302 15.7954H10.7998V32.7402H7.41262L7.41036 15.7954H2.91055L2.90151 12.4094H7.41206V7.14047C7.41255 2.54629 11.2281 2.26036 12.178 2.26036V2.26039ZM15.3414 2.26601H15.347H15.3414ZM12.178 0C11.3654 0 9.77745 0.134527 8.27318 1.04093C6.84915 1.89761 5.15219 3.65218 5.15219 7.13995V10.1484H2.902C2.30131 10.1484 1.72549 10.388 1.30054 10.813C1.09058 11.0238 0.9243 11.274 0.811238 11.5492C0.698176 11.8244 0.640555 12.1192 0.641679 12.4168L0.65072 15.8028C0.655241 17.0477 1.66619 18.0552 2.91108 18.0552H5.15053L5.15279 32.7396C5.15279 33.9879 6.1649 35 7.41315 35H10.8003C12.0486 35 13.0607 33.9879 13.0607 32.7396V18.0552H15.7307C16.7338 18.0552 17.617 17.3941 17.8995 16.4318L18.6963 13.0457C18.8969 12.3625 18.7635 11.624 18.3363 11.0549C18.1261 10.7735 17.8532 10.545 17.5391 10.3877C17.2251 10.2303 16.8787 10.1484 16.5274 10.1485H13.0793V7.91807L15.3266 7.91694C16.5704 7.91694 17.5813 6.91165 17.587 5.66676L17.6022 2.39093C17.6045 2.34934 17.6056 2.3077 17.6056 2.26605C17.6056 1.01776 16.5958 0.00568619 15.3476 0.00568619H12.4538C12.3888 0.00229565 12.295 3.53181e-05 12.178 0Z" fill="black"/>
</svg>
