<svg width="40" height="35" viewBox="0 0 40 35" fill="none" xmlns="http://www.w3.org/2000/svg">
<path d="M38.4598 0.654666C38.0645 0.327005 37.5879 0.112422 37.0805 0.0336686C36.5731 -0.0450852 36.0539 0.014925 35.5779 0.207337L2.73033 13.4677C2.19953 13.6858 1.74763 14.0602 1.43461 14.5412C1.12159 15.0222 0.962265 15.587 0.97778 16.1607C0.993295 16.7343 1.18292 17.2897 1.52148 17.7531C1.86004 18.2164 2.33152 18.5659 2.87333 18.755L9.96093 21.2153L13.8017 33.9128C13.8091 33.9385 13.8329 33.955 13.8439 33.9788C13.8835 34.0801 13.9412 34.1733 14.0144 34.2538C14.1255 34.378 14.269 34.4687 14.4287 34.516C14.4471 34.5233 14.4599 34.5398 14.4782 34.5435H14.4892L14.4947 34.5453C14.6366 34.5759 14.7839 34.5683 14.9219 34.5233C14.9365 34.5197 14.9512 34.5197 14.9677 34.5142C15.1002 34.4677 15.22 34.3911 15.3179 34.2905C15.3289 34.2777 15.3472 34.2758 15.3582 34.2648L20.882 28.1672L28.9431 34.4097C29.4326 34.7928 30.0357 35 30.6572 35C32.0029 35 33.1634 34.0577 33.4402 32.7432L39.4205 3.37714C39.5219 2.87861 39.4861 2.3619 39.317 1.88212C39.1478 1.40233 38.8515 0.977464 38.4598 0.652833V0.654666ZM15.8055 23.6261L14.5094 29.9272L11.8052 20.9843L25.216 13.9994L16.0549 23.1623C15.928 23.289 15.8413 23.4504 15.8055 23.6261ZM31.6436 32.3747C31.6091 32.5409 31.5325 32.6955 31.4211 32.8236C31.3097 32.9517 31.1673 33.049 31.0074 33.1062C30.8514 33.1662 30.6825 33.1846 30.5173 33.1595C30.3521 33.1344 30.1962 33.0668 30.0651 32.9632L21.333 26.2001C21.1504 26.0592 20.9215 25.9922 20.6918 26.0126C20.4621 26.033 20.2485 26.1392 20.0937 26.3101L16.2492 30.5469L17.5435 24.2641L30.7232 11.0826C30.8776 10.9277 30.9715 10.7228 30.988 10.5048C31.0046 10.2868 30.9426 10.07 30.8134 9.89366C30.6842 9.7173 30.4962 9.59294 30.2833 9.54302C30.0704 9.49309 29.8467 9.5209 29.6526 9.62141L10.6539 19.5176L3.47282 17.0207C3.28242 16.9578 3.11636 16.8371 2.99774 16.6755C2.87912 16.5138 2.81384 16.3192 2.811 16.1187C2.80186 15.9164 2.85591 15.7163 2.96563 15.5461C3.07535 15.376 3.23531 15.2442 3.42333 15.169L36.2653 1.90865C36.4336 1.83715 36.6186 1.81402 36.7993 1.84188C36.98 1.86973 37.1494 1.94746 37.2883 2.06632C37.4265 2.17813 37.5309 2.32615 37.5898 2.49384C37.6487 2.66154 37.6599 2.84231 37.622 3.01598L31.6436 32.3765V32.3747Z" fill="black"/>
</svg>
