<svg width="34" height="35" viewBox="0 0 34 35" fill="none" xmlns="http://www.w3.org/2000/svg">
<path d="M30.234 3.40813C29.366 2.60842 25.8527 0.0589383 18.0197 0.0247629C18.0197 0.0247629 8.78553 -0.528879 4.28805 3.59951C1.78641 6.10115 0.904687 9.77159 0.808996 14.3169C0.713305 18.8622 0.597108 27.3787 8.80604 29.689H8.81287L8.80604 33.2159C8.80604 33.2159 8.75136 34.6444 9.6946 34.9315C10.8292 35.2869 11.4991 34.2002 12.5858 33.0314C13.1805 32.3889 14.0007 31.4456 14.6227 30.7279C20.2411 31.1996 24.5541 30.1196 25.0462 29.9624C26.1808 29.5933 32.5989 28.7731 33.6379 20.2566C34.7178 11.4667 33.1184 5.9166 30.234 3.40813ZM31.1841 19.6141C30.3024 26.7226 25.1009 27.1737 24.144 27.4813C23.7339 27.6111 19.9404 28.5544 15.1763 28.2468C15.1763 28.2468 11.6221 32.5324 10.5148 33.6465C10.1525 34.0088 9.75611 33.9746 9.76295 33.2569C9.76295 32.7853 9.79029 27.3993 9.79029 27.3993C9.78345 27.3993 9.78345 27.3993 9.79029 27.3993C2.83218 25.4718 3.24228 18.2197 3.31747 14.4263C3.39266 10.6328 4.11034 7.52284 6.22921 5.43131C10.0364 1.97959 17.8762 2.49223 17.8762 2.49223C24.4994 2.51957 27.6709 4.51541 28.409 5.18525C30.8492 7.27678 32.0932 12.2801 31.1841 19.6141ZM21.6833 14.0914C21.7107 14.6792 20.8289 14.7202 20.8016 14.1324C20.7264 12.6286 20.0224 11.8973 18.5734 11.8153C17.9855 11.7811 18.0402 10.8994 18.6212 10.9335C20.5282 11.0361 21.5876 12.1297 21.6833 14.0914ZM23.0708 14.8637C23.1392 11.9656 21.3279 9.6964 17.8899 9.4435C17.3089 9.40249 17.3704 8.52077 17.9514 8.56178C21.9157 8.84885 24.0278 11.576 23.9526 14.8842C23.9457 15.472 23.0572 15.4447 23.0708 14.8637ZM26.2833 15.7796C26.2902 16.3674 25.4016 16.3743 25.4016 15.7865C25.3606 10.2159 21.6492 7.18109 17.1448 7.14691C16.5639 7.14008 16.5639 6.26519 17.1448 6.26519C22.1823 6.29936 26.2355 9.77842 26.2833 15.7796ZM25.511 22.4848V22.4985C24.7728 23.7972 23.3921 25.2325 21.9704 24.7746L21.9567 24.7541C20.5145 24.3508 17.1175 22.601 14.9713 20.8923C13.864 20.0174 12.8524 18.9853 12.0732 17.9942C11.3692 17.1125 10.6583 16.0667 9.968 14.809C8.51213 12.1775 8.19088 11.0019 8.19088 11.0019C7.73293 9.5802 9.16146 8.19952 10.467 7.46133H10.4806C11.1095 7.13324 11.7109 7.24261 12.1142 7.7279C12.1142 7.7279 12.9618 8.73949 13.324 9.23845C13.6658 9.70323 14.1237 10.4483 14.363 10.8652C14.7799 11.6102 14.5202 12.3689 14.1101 12.6833L13.2899 13.3395C12.8729 13.6744 12.9276 14.2964 12.9276 14.2964C12.9276 14.2964 14.1442 18.8964 18.6896 20.0584C18.6896 20.0584 19.3116 20.1131 19.6465 19.6961L20.3026 18.8759C20.6171 18.4658 21.3757 18.2061 22.1208 18.623C23.1255 19.1903 24.4037 20.072 25.2512 20.8718C25.7297 21.2614 25.8391 21.856 25.511 22.4848Z" fill="black"/>
</svg>
