<?xml version="1.0" encoding="utf-8"?>
<!-- Generator: Adobe Illustrator 26.0.2, SVG Export Plug-In . SVG Version: 6.00 Build 0)  -->
<svg version="1.1" id="Layer_1" xmlns="http://www.w3.org/2000/svg" xmlns:xlink="http://www.w3.org/1999/xlink" x="0px" y="0px"
	 viewBox="0 0 47.6 34" style="enable-background:new 0 0 47.6 34;" xml:space="preserve">
<path d="M33.5,16.2L33.5,16.2L19.8,7.8c-0.2-0.1-0.3-0.1-0.5-0.1c0,0,0,0,0,0c-0.2,0-0.3,0-0.5,0.1c-0.2,0.1-0.3,0.2-0.4,0.4
	s-0.1,0.3-0.1,0.5v16.8c0,0.3,0.1,0.5,0.3,0.7c0.3,0.3,0.9,0.4,1.2,0.2L33.4,18c0.3-0.2,0.5-0.5,0.5-0.9
	C33.9,16.8,33.8,16.4,33.5,16.2z M20.3,23.7V10.5l10.7,6.6L20.3,23.7z"/>
<path d="M47.6,17.2c0-6-1-13.1-3.8-15.1C41.9,0.7,35.3,0,23.8,0C12.9,0,6.4,0.6,4.4,1.8C1.3,3.7,0.1,11.3,0,17.3
	c0.1,6,1.3,13,4.4,14.9c2,1.2,8.6,1.8,19.4,1.8c11.5,0,18.1-0.7,20.1-2.1C47.3,29.4,47.6,20,47.6,17.2z M42.7,30.2
	c-0.7,0.5-4,1.7-18.9,1.7C9.5,32,6.2,30.9,5.4,30.4C3.5,29.3,2.1,23.9,2,17.3C2.1,10.6,3.6,4.7,5.4,3.6C6.2,3.1,9.5,2,23.8,2
	C38.7,2,42,3.2,42.7,3.8c1.7,1.2,2.9,6.9,2.9,13.5C45.6,24.8,44.1,29.2,42.7,30.2z"/>
</svg>
